<?xml version="1.0" encoding="UTF-8"?>
<svg version="1.1" xmlns="http://www.w3.org/2000/svg" width="512" height="512">
<path d="M0 0 C1.36539665 0.38560089 1.36539665 0.38560089 2.75837708 0.7789917 C5.7343204 1.62212019 8.70646781 2.47779711 11.6784668 3.3347168 C13.75958198 3.92946309 15.84081669 4.5237913 17.92216492 5.11772156 C22.26848502 6.36027193 26.61286794 7.60933622 30.95605469 8.86279297 C36.51819471 10.46724271 42.0854742 12.05297872 47.65441608 13.63363361 C51.94706384 14.85467252 56.23649841 16.08670024 60.52507591 17.32195091 C62.57691095 17.91127911 64.62980706 18.49692614 66.68377113 19.07879066 C69.55169741 19.89277574 72.41487345 20.72175026 75.27734375 21.5546875 C76.12262634 21.79120529 76.96790894 22.02772308 77.83880615 22.27140808 C79.01383446 22.61826157 79.01383446 22.61826157 80.21260071 22.97212219 C81.22598747 23.26330413 81.22598747 23.26330413 82.25984669 23.56036854 C85.13422106 24.8344882 87.08959835 26.23979919 89.31518555 28.47143555 C89.93880463 31.28223515 89.93880463 31.28223515 89.93664551 34.58888245 C89.94785431 35.84375458 89.95906311 37.09862671 89.97061157 38.39152527 C89.95770089 39.77957614 89.94428678 41.16762241 89.93041992 42.55566406 C89.93392133 44.01935469 89.93958013 45.48304151 89.94723511 46.94671631 C89.9614891 50.91994721 89.94441698 54.89248658 89.92094994 58.86565137 C89.90085444 63.02159201 89.90671974 67.17750356 89.90905762 71.33348083 C89.90900404 78.31179219 89.8892409 85.28983285 89.85717773 92.26806641 C89.82027003 100.33999294 89.81150403 108.41156502 89.81847525 116.48356491 C89.82477624 124.24490501 89.81403441 132.00612335 89.79450989 139.76743889 C89.78632758 143.07241486 89.78362785 146.37732867 89.78520203 149.68231392 C89.78607976 153.57217525 89.77189528 157.46169873 89.74597549 161.35147095 C89.73880217 162.78053589 89.73673568 164.20963674 89.74009323 165.63871574 C89.74379651 167.58615761 89.7272475 169.53360692 89.70959473 171.48097229 C89.70400166 173.11719717 89.70400166 173.11719717 89.69829559 174.78647709 C89.31518555 177.47143555 89.31518555 177.47143555 87.93345833 179.28758144 C85.81129823 180.84005639 83.82613353 181.46248412 81.30102539 182.19799805 C80.27097382 182.50297714 79.24092224 182.80795624 78.17965698 183.12217712 C76.49490768 183.60443504 76.49490768 183.60443504 74.77612305 184.09643555 C73.60292511 184.44021744 72.42972717 184.78399933 71.22097778 185.13819885 C68.03917259 186.06751109 64.85502495 186.98765392 61.66903687 187.90245438 C59.69254064 188.47075838 57.71697605 189.04218876 55.74169922 189.61471558 C46.60748808 192.26180291 37.4642379 194.87613911 28.31518555 197.47143555 C27.19535278 197.78945129 26.07552002 198.10746704 24.92175293 198.43511963 C19.08787007 200.08862002 13.24932826 201.72323035 7.40093994 203.32470703 C5.69410927 203.7928617 3.98830912 204.2647919 2.28363037 204.74072266 C-0.06707976 205.3946114 -2.42176922 206.03128953 -4.77856445 206.6628418 C-5.43968231 206.84947891 -6.10080017 207.03611603 -6.7819519 207.22840881 C-15.6207559 209.53892827 -23.7126704 208.60867799 -32.36962891 206.04052734 C-33.27989334 205.78199982 -34.19015778 205.52347229 -35.12800598 205.2571106 C-38.10524795 204.40786746 -41.07659894 203.53976642 -44.0480957 202.6706543 C-46.12905454 202.07154243 -48.21029212 201.47339796 -50.29179382 200.87617493 C-54.63885613 199.62588597 -58.98320705 198.36670807 -63.32568359 197.10058594 C-68.88779015 195.47921836 -74.45493367 193.87603855 -80.02404499 192.27891827 C-84.3159394 191.04670695 -88.60566268 189.80708087 -92.89470482 188.56498146 C-94.94707819 187.97114191 -96.999974 187.37910488 -99.05340004 186.78891563 C-101.9200752 185.96331736 -104.78383436 185.12829671 -107.64697266 184.29052734 C-108.49225525 184.04884323 -109.33753784 183.80715912 -110.20843506 183.55815125 C-119.27535461 180.88089539 -119.27535461 180.88089539 -122.68481445 177.47143555 C-122.79236018 175.55711629 -122.82893677 173.63879421 -122.8387146 171.72148132 C-122.84731506 170.47217834 -122.85591553 169.22287537 -122.86477661 167.93571472 C-122.86921223 166.53836101 -122.87351055 165.14100686 -122.87768555 163.74365234 C-122.88558321 162.28203128 -122.89385195 160.82041218 -122.90246582 159.35879517 C-122.92872551 154.54610059 -122.94399766 149.73339714 -122.95825195 144.9206543 C-122.96361007 143.26616726 -122.96898757 141.61168029 -122.97438431 139.95719337 C-122.99601909 133.07646661 -123.01475687 126.19574223 -123.0260067 119.31499004 C-123.04225195 109.44254648 -123.07543648 99.57049616 -123.13240755 89.69820088 C-123.17106836 82.76314363 -123.1906348 75.82819172 -123.19592726 68.89302951 C-123.19958617 64.74783556 -123.21166363 60.60306063 -123.24403 56.45798302 C-123.27404315 52.55825692 -123.28044714 48.65920483 -123.26864624 44.75938797 C-123.26842493 43.32747832 -123.27677761 41.89553803 -123.29430008 40.46373558 C-123.31690895 38.51006804 -123.30573774 36.55609633 -123.29281616 34.6023407 C-123.29612631 33.50854945 -123.29943645 32.41475821 -123.30284691 31.28782177 C-122.68481445 28.47143555 -122.68481445 28.47143555 -120.41271687 26.18517494 C-118.02085897 24.68254747 -116.12022633 23.69929837 -113.43037415 22.92070007 C-112.61336533 22.67815994 -111.79635651 22.43561981 -110.95458984 22.18572998 C-110.0719043 21.93671936 -109.18921875 21.68770874 -108.27978516 21.43115234 C-107.33926804 21.15586197 -106.39875092 20.88057159 -105.42973328 20.59693909 C-102.32676974 19.6925414 -99.21909225 18.80583222 -96.1105957 17.9206543 C-93.94436348 17.29673092 -91.77828388 16.6722774 -89.61235046 16.0473175 C-85.07278716 14.74071092 -80.53070472 13.44333707 -75.98681641 12.15185547 C-70.17848429 10.4997731 -64.37831208 8.82084133 -58.57990742 7.13429546 C-54.10775765 5.83754835 -49.63098293 4.55739699 -45.15273094 3.28190041 C-43.01302504 2.66989786 -40.87490877 2.05230789 -38.73848915 1.42893028 C-35.74253181 0.55698969 -32.74089857 -0.29179841 -29.73681641 -1.13525391 C-28.42796982 -1.52395157 -28.42796982 -1.52395157 -27.09268188 -1.92050171 C-17.5645786 -4.53942691 -9.3069938 -2.70341521 0 0 Z M-8.68481445 14.47143555 C-8.68481445 22.06143555 -8.68481445 29.65143555 -8.68481445 37.47143555 C-0.72979889 39.11511485 7.22530115 40.75838363 15.18054295 42.4009676 C18.87610957 43.16403781 22.57164162 43.92727454 26.26708984 44.69091797 C29.84616116 45.43050593 33.42532959 46.16962237 37.00456047 46.90843773 C38.35703807 47.18769379 39.709483 47.46710811 41.06189156 47.74669838 C44.22346413 48.40025562 47.38550422 49.05136639 50.54837036 49.69863892 C53.17522029 50.23756124 55.80026865 50.78267063 58.42453003 51.33383179 C59.76817239 51.6118908 61.11185009 51.88977907 62.45556641 52.16748047 C63.65217392 52.41761398 64.84878143 52.6677475 66.08164978 52.92546082 C69.59033718 53.61017803 69.59033718 53.61017803 74.31518555 53.47143555 C74.31518555 48.52143555 74.31518555 43.57143555 74.31518555 38.47143555 C69.1738673 36.49120067 64.03753939 34.71468354 58.73754883 33.203125 C58.02758255 32.99786194 57.31761627 32.79259888 56.58613586 32.58111572 C54.27016291 31.91245648 51.95289045 31.24843829 49.63549805 30.5847168 C48.01498613 30.11838443 46.39453419 29.6518436 44.7741394 29.18510437 C41.39420458 28.21232277 38.01363143 27.24180191 34.63256836 26.27294922 C30.29353642 25.02942808 25.95604946 23.78061262 21.6190052 22.53017902 C18.28081243 21.56828056 14.9418843 20.60895627 11.60271835 19.65044212 C10.00206821 19.19067573 8.40163635 18.73014868 6.80142593 18.26885414 C4.57383632 17.62716356 2.34529567 16.98889214 0.11645508 16.3515625 C-1.78594437 15.80554131 -1.78594437 15.80554131 -3.72677612 15.24848938 C-6.49747641 14.38674484 -6.49747641 14.38674484 -8.68481445 14.47143555 Z M-34.23974609 16.56689453 C-35.0187175 16.78962036 -35.7976889 17.01234619 -36.6002655 17.24182129 C-39.18262092 17.98100882 -41.76382726 18.72412164 -44.3449707 19.4675293 C-46.13329686 19.98093704 -47.92166306 20.49420534 -49.71006775 21.00733948 C-53.46070619 22.08417806 -57.2107651 23.16300728 -60.96044922 24.24316406 C-65.77719273 25.63048554 -70.59546199 27.0124219 -75.41419315 28.39282131 C-79.10788992 29.45165694 -82.80070079 30.51355509 -86.49325371 31.57637215 C-88.27005694 32.08733297 -90.04715354 32.59727475 -91.82454109 33.10619926 C-94.3037052 33.81651426 -96.78163398 34.53098355 -99.25927734 35.24658203 C-100.00059906 35.45805374 -100.74192078 35.66952545 -101.50570679 35.8874054 C-104.86860273 36.66172708 -104.86860273 36.66172708 -107.68481445 38.47143555 C-107.75795012 41.00192957 -107.77728972 43.50448391 -107.74731445 46.03393555 C-107.74280273 46.74485352 -107.73829102 47.45577148 -107.73364258 48.18823242 C-107.72182309 49.94933568 -107.70388708 51.71039591 -107.68481445 53.47143555 C-98.89495849 52.8833464 -90.36399475 51.12207519 -81.75512695 49.34643555 C-80.23208795 49.03596877 -78.7089642 48.72591747 -77.1857605 48.41625977 C-73.20476956 47.60568346 -69.22504862 46.78903086 -65.24554443 45.97119141 C-61.9925294 45.30374742 -58.73862453 44.64070528 -55.48466682 43.97787476 C-51.59535274 43.18553335 -47.70643225 42.39126988 -43.81762695 41.59643555 C-43.0794083 41.44559509 -42.34118965 41.29475464 -41.58060074 41.13934326 C-39.49159149 40.71200411 -37.40285293 40.28336865 -35.31420898 39.85424805 C-34.12747589 39.61077637 -32.9407428 39.36730469 -31.7180481 39.11645508 C-29.36302326 38.61565718 -27.02061068 38.0553846 -24.68481445 37.47143555 C-24.68481445 29.88143555 -24.68481445 22.29143555 -24.68481445 14.47143555 C-27.9888473 14.47143555 -31.08484486 15.65581527 -34.23974609 16.56689453 Z M-8.68481445 53.47143555 C-8.68481445 99.01143555 -8.68481445 144.55143555 -8.68481445 191.47143555 C-1.75481445 189.49143555 -1.75481445 189.49143555 5.31518555 187.47143555 C5.32453125 185.73539063 5.33387695 183.9993457 5.34350586 182.21069336 C5.37904549 176.47089223 5.43285119 170.73141813 5.49908829 164.9919014 C5.53857606 161.51240418 5.57075765 158.03316049 5.58618164 154.5534668 C5.60424102 150.55175178 5.65418536 146.55098431 5.70581055 142.54956055 C5.70703918 141.30152649 5.70826782 140.05349243 5.70953369 138.76763916 C5.73911163 137.02628693 5.73911163 137.02628693 5.76928711 135.24975586 C5.77816956 134.22827454 5.787052 133.20679321 5.79620361 132.15435791 C6.45389208 128.75438005 7.63692141 127.60400339 10.31518555 125.47143555 C13.53564453 124.08349609 13.53564453 124.08349609 17.3112793 122.8581543 C17.98183853 122.63948196 18.65239777 122.42080963 19.34327698 122.19551086 C20.75588879 121.73841539 22.17049572 121.28744521 23.58691406 120.84228516 C25.74801099 120.16041047 27.89960214 119.45318094 30.05151367 118.74291992 C31.42927376 118.30061946 32.80751461 117.85981317 34.1862793 117.4206543 C35.4333667 117.02193115 36.6804541 116.62320801 37.96533203 116.21240234 C41.32344684 115.4696082 43.10653812 115.31313584 46.31518555 116.47143555 C48.5987979 118.18969637 49.24886193 119.06411044 49.71391296 121.92021179 C49.73056755 123.37582268 49.73056755 123.37582268 49.74755859 124.86083984 C49.77724983 126.51221199 49.77724983 126.51221199 49.80754089 128.19694519 C49.81393082 129.3845192 49.82032074 130.5720932 49.8269043 131.7956543 C49.8448555 133.01219193 49.8628067 134.22872955 49.88130188 135.48213196 C49.93555952 139.37436437 49.96935105 143.26647308 50.00268555 147.15893555 C50.03584487 149.79502053 50.07033321 152.43108915 50.10620117 155.06713867 C50.191295 161.53512671 50.25957942 168.00313045 50.31518555 174.47143555 C53.94111874 173.49570236 57.56576436 172.51526892 61.19018555 171.53393555 C62.22272461 171.25614258 63.25526367 170.97834961 64.3190918 170.69213867 C65.30522461 170.4246582 66.29135742 170.15717773 67.30737305 169.8815918 C68.2185791 169.63546143 69.12978516 169.38933105 70.06860352 169.13574219 C72.32333166 168.54037671 72.32333166 168.54037671 74.31518555 167.47143555 C74.31518555 135.13143555 74.31518555 102.79143555 74.31518555 69.47143555 C63.30143555 67.20268555 52.28768555 64.93393555 40.94018555 62.59643555 C37.48114746 61.88374512 34.02210938 61.17105469 30.45825195 60.43676758 C27.31829086 59.79010809 27.31829086 59.79010809 24.17831421 59.14352417 C22.79539875 58.85871681 21.41250613 58.57379854 20.02963257 58.28878784 C16.62993038 57.58814608 13.22994876 56.88903692 9.8291626 56.19366455 C7.6462311 55.74500583 5.46459349 55.2899405 3.28509521 54.82489014 C2.41121155 54.64105774 1.53732788 54.45722534 0.63696289 54.26782227 C-0.09011871 54.11159393 -0.81720032 53.9553656 -1.5663147 53.79440308 C-4.15146671 53.34584407 -4.15146671 53.34584407 -8.68481445 53.47143555 Z M-36.39086914 54.94018555 C-37.56618635 55.178078 -37.56618635 55.178078 -38.76524734 55.42077637 C-41.29648111 55.93403503 -43.826588 56.45262721 -46.35668945 56.97143555 C-47.92123366 57.28949665 -49.4858492 57.60720712 -51.05053711 57.92456055 C-56.84616174 59.1026021 -62.64040525 60.28743014 -68.43481445 61.47143555 C-81.38731445 64.11143555 -94.33981445 66.75143555 -107.68481445 69.47143555 C-107.68481445 101.81143555 -107.68481445 134.15143555 -107.68481445 167.47143555 C-87.73024747 173.65366089 -87.73024747 173.65366089 -67.69262695 179.53393555 C-66.5625119 179.85555664 -65.43239685 180.17717773 -64.26803589 180.50854492 C-61.94547195 181.1684048 -59.62249023 181.8267961 -57.29907227 182.48364258 C-53.73321582 183.49312027 -50.16996055 184.51146796 -46.60668945 185.5300293 C-44.32298587 186.1776959 -42.03913741 186.82485197 -39.75512695 187.47143555 C-38.69802521 187.7744458 -37.64092346 188.07745605 -36.55178833 188.38964844 C-35.57491058 188.66413818 -34.59803284 188.93862793 -33.59155273 189.22143555 C-32.7373172 189.4637793 -31.88308167 189.70612305 -31.00296021 189.95581055 C-28.4298515 190.61618466 -28.4298515 190.61618466 -24.68481445 190.47143555 C-24.68481445 145.26143555 -24.68481445 100.05143555 -24.68481445 53.47143555 C-28.76324473 53.47143555 -32.42495709 54.12103313 -36.39086914 54.94018555 Z M27.25268555 135.40893555 C25.6265332 135.9484082 25.6265332 135.9484082 23.9675293 136.4987793 C21.42683079 137.21964972 21.42683079 137.21964972 20.31518555 138.47143555 C20.22240225 139.85303669 20.19771512 141.23931592 20.20166016 142.62402344 C20.20173569 143.50486099 20.20181122 144.38569855 20.20188904 145.29322815 C20.20705032 146.25051315 20.21221161 147.20779816 20.2175293 148.1940918 C20.21894424 149.16930283 20.22035919 150.14451385 20.22181702 151.14927673 C20.22743422 154.27752697 20.23998962 157.40570678 20.25268555 160.53393555 C20.25769833 162.64916889 20.26226162 164.76440335 20.26635742 166.87963867 C20.27740923 172.07692851 20.29416408 177.274177 20.31518555 182.47143555 C21.87884139 182.1860304 23.44106989 181.89280056 25.00268555 181.59643555 C25.87280273 181.43401367 26.74291992 181.2715918 27.6394043 181.10424805 C30.76313081 180.43506708 30.76313081 180.43506708 35.31518555 178.47143555 C35.31518555 163.62143555 35.31518555 148.77143555 35.31518555 133.47143555 C32.40798194 133.47143555 30.00317592 134.48773436 27.25268555 135.40893555 Z " fill="#9C52C5" transform="translate(272.684814453125,21.528564453125)"/>
<path d="M0 0 C2.57497523 2.84354835 4.06582374 6.02316857 5.64453125 9.49609375 C6.4015332 11.14738281 6.4015332 11.14738281 7.17382812 12.83203125 C7.71458984 14.02183594 8.25535156 15.21164062 8.8125 16.4375 C9.98213494 18.98991673 11.15640519 21.54018161 12.33203125 24.08984375 C12.63384308 24.74491913 12.93565491 25.39999451 13.24661255 26.07492065 C16.41171692 32.92541909 19.70019138 39.71347052 23 46.5 C27.57445808 55.9152406 32.05484357 65.3685026 36.4375 74.875 C41.01640998 84.80530111 45.71467835 94.66803388 50.5 104.5 C55.84096383 115.4735937 61.04647555 126.49832933 66.15625 137.58203125 C70.01523043 145.93214782 73.98127689 154.2260848 78 162.5 C83.39551734 173.61023801 88.65549212 184.77569506 93.82617188 195.9921875 C94.33083984 197.08660156 94.83550781 198.18101562 95.35546875 199.30859375 C96.01518677 200.74416626 96.01518677 200.74416626 96.68823242 202.20874023 C97.6372483 204.22811461 98.62494309 206.22946198 99.63598633 208.21850586 C101.63405211 212.29295787 101.58034479 214.5023279 101 219 C98.9375 221.5625 98.9375 221.5625 96 223 C90.04555437 222.69415739 85.55404765 220.64384328 80.33203125 218.01953125 C79.50764053 217.61489655 78.68324982 217.21026184 77.83387756 216.79336548 C75.15536958 215.47573222 72.4839833 214.14430976 69.8125 212.8125 C67.95564268 211.89575148 66.09838028 210.97982301 64.24072266 210.06469727 C58.82019862 207.39035566 53.40853063 204.69850155 48 202 C47.26549622 201.63362427 46.53099243 201.26724854 45.77423096 200.88977051 C41.47247226 198.74302783 37.17343949 196.59087982 32.875 194.4375 C29.6338652 192.81657651 26.39247248 191.1961769 23.15039062 189.57714844 C20.99597094 188.49860294 18.84372164 187.41571404 16.69335938 186.32910156 C13.51128807 184.72489353 10.31964418 183.14148841 7.125 181.5625 C6.1851123 181.08288818 5.24522461 180.60327637 4.27685547 180.10913086 C0.72721984 178.37364419 -2.03497595 177.02878801 -6.01171875 176.91015625 C-10.50941764 178.55049349 -14.69463072 180.66648595 -18.9375 182.875 C-20.92485626 183.88983429 -22.9131669 184.90280141 -24.90234375 185.9140625 C-26.42577393 186.68991699 -26.42577393 186.68991699 -27.97998047 187.48144531 C-32.61766547 189.8134098 -37.30706468 192.03192123 -42 194.25 C-50.5257245 198.29286025 -58.97952116 202.4654219 -67.41036987 206.70129395 C-71.22596375 208.61664775 -75.04620011 210.52273348 -78.86604309 212.42959595 C-82.39892722 214.19460415 -85.92193137 215.97798124 -89.44140625 217.76953125 C-90.93950244 218.51423254 -92.43814025 219.257846 -93.9375 220 C-94.57413574 220.33217529 -95.21077148 220.66435059 -95.86669922 221.0065918 C-100.26240373 223.14434418 -103.2835704 223.11826894 -108 222 C-109.9375 220.9375 -109.9375 220.9375 -111 219 C-111.41669091 213.01963309 -110.70904635 209.42878387 -107.95703125 203.984375 C-107.47750755 203.01721558 -107.47750755 203.01721558 -106.98829651 202.03051758 C-106.30116574 200.64884746 -105.6069206 199.27069626 -104.90618896 197.89587402 C-103.41224295 194.96467507 -101.95281186 192.01673193 -100.49102783 189.06939697 C-99.74275713 187.56147797 -98.99270763 186.05444039 -98.24090576 184.54827881 C-94.81562892 177.67656411 -91.57508748 170.7296435 -88.375 163.75 C-84.01597781 154.28377028 -79.5529426 144.87398171 -75 135.5 C-70.40659407 126.04226171 -65.90419984 116.54779089 -61.5 107 C-56.81270677 96.83849569 -52.00327185 86.7428096 -47.11474609 76.67724609 C-42.81856869 67.82631407 -38.62118524 58.93404671 -34.5 50 C-29.88419192 39.9955242 -25.17221525 30.04351575 -20.375 20.125 C-20.074729 19.50399414 -19.77445801 18.88298828 -19.46508789 18.24316406 C-17.65015088 14.49212734 -15.83248157 10.74249847 -14 7 C-13.48131348 5.91702637 -12.96262695 4.83405273 -12.42822266 3.71826172 C-11 1 -11 1 -9.25 -0.4375 C-5.86729105 -1.28317724 -3.35694472 -0.85449502 0 0 Z M-6 26 C-6.45101074 26.95213379 -6.90202148 27.90426758 -7.36669922 28.88525391 C-25.80834961 67.81762695 -25.80834961 67.81762695 -44.25 106.75 C-44.62120468 107.53365936 -44.99240936 108.31731873 -45.37486267 109.12472534 C-46.12530469 110.70898166 -46.87576247 112.29323051 -47.62623596 113.87747192 C-49.49460189 117.82162275 -51.362699 121.76590043 -53.23022461 125.71044922 C-56.6839825 133.00468995 -60.14022955 140.29771649 -63.60571289 147.58639526 C-75.55226828 172.67800159 -75.55226828 172.67800159 -87 198 C-81.69130932 196.42274566 -76.95169589 194.09665442 -72.03515625 191.59765625 C-71.17275833 191.16367523 -70.31036041 190.72969421 -69.42182922 190.28256226 C-67.58293702 189.35692993 -65.74490046 188.42959613 -63.90765381 187.5007019 C-59.15514292 185.09834665 -54.39611052 182.70900006 -49.63671875 180.3203125 C-48.7071637 179.85356613 -47.77760864 179.38681976 -46.81988525 178.90592957 C-37.31666619 174.14199042 -27.74991474 169.51768872 -18.11621094 165.02294922 C-16.68081412 164.32909681 -15.26201767 163.60002099 -13.86035156 162.84033203 C-13.17682617 162.47149902 -12.49330078 162.10266602 -11.7890625 161.72265625 C-11.2007666 161.39144775 -10.6124707 161.06023926 -10.00634766 160.71899414 C-6.21609706 159.36072108 -3.03104741 159.61136656 0.70288086 161.01879883 C1.61432861 161.49341553 2.52577637 161.96803223 3.46484375 162.45703125 C5.01727783 163.25161743 5.01727783 163.25161743 6.60107422 164.06225586 C8.25260498 164.92862671 8.25260498 164.92862671 9.9375 165.8125 C11.69663509 166.71464258 13.45578561 167.61675847 15.21630859 168.51618958 C16.41163367 169.12702444 17.60629255 169.73916469 18.80029297 170.35258484 C24.27345404 173.15965562 29.81211788 175.81406731 35.375 178.4375 C41.82485787 181.48380692 48.23010448 184.60244678 54.58984375 187.83203125 C55.23254211 188.1575145 55.87524048 188.48299774 56.53741455 188.81834412 C59.70969498 190.42552206 62.8773742 192.04081353 66.03857422 193.66967773 C67.17697754 194.24790283 68.31538086 194.82612793 69.48828125 195.421875 C70.50446533 195.94362305 71.52064941 196.46537109 72.56762695 197.00292969 C73.37031006 197.33196289 74.17299316 197.66099609 75 198 C75.66 197.67 76.32 197.34 77 197 C76.64397705 196.26813477 76.2879541 195.53626953 75.92114258 194.78222656 C69.33909562 181.23708338 62.80753428 167.6756015 56.5 154 C52.09584571 144.45218541 47.59334007 134.95777082 43 125.5 C37.8483022 114.89256047 32.83400846 104.22774098 27.89453125 93.51953125 C24.01736026 85.13620512 20.03503862 76.8079995 16 68.5 C9.15946875 54.41265489 2.54744997 40.22564356 -4 26 C-4.66 26 -5.32 26 -6 26 Z " fill="#6255CC" transform="translate(261,271)"/>
<path d="M0 0 C1.80200195 1.2824707 1.80200195 1.2824707 3.67578125 2.98828125 C4.37300293 3.6225 5.07022461 4.25671875 5.78857422 4.91015625 C9.56849443 8.48226014 13.26974651 12.12556035 16.9375 15.8125 C17.70384766 16.57498047 18.47019531 17.33746094 19.25976562 18.12304688 C19.98744141 18.85201172 20.71511719 19.58097656 21.46484375 20.33203125 C22.120896 20.98921143 22.77694824 21.6463916 23.45288086 22.32348633 C25.748717 24.81133654 25.99182692 25.91173071 26.3125 29.375 C26 33 26 33 24.4921875 35.16796875 C21.09100252 37.66821288 17.88815511 37.70645968 13.8125 37.9375 C-8.56131476 39.8769273 -28.10267585 49.03087475 -42.8125 66.4375 C-57.62734707 85.4776154 -61.15423546 105.13697873 -61.14526367 128.6706543 C-61.14826032 130.24530618 -61.15166401 131.81995734 -61.15544128 133.39460754 C-61.16423507 137.65108117 -61.16661747 141.90753465 -61.16725707 146.16401649 C-61.16797032 148.83009342 -61.17010986 151.49616531 -61.17275429 154.16224098 C-61.18199318 163.48275703 -61.18609109 172.80325882 -61.18530273 182.1237793 C-61.18470268 190.78003398 -61.19524403 199.43622621 -61.2110464 208.0924651 C-61.2241703 215.55013147 -61.22948459 223.00777754 -61.22884732 230.46545535 C-61.22859372 234.90803497 -61.23136848 239.35055905 -61.24202538 243.79312706 C-61.25178813 247.97681894 -61.25173021 252.16040311 -61.24450874 256.34409904 C-61.24347291 257.86854461 -61.2457653 259.39299718 -61.2518692 260.91743088 C-61.34651812 286.22028562 -55.31803501 308.79376698 -37.47363281 327.53808594 C-21.90063151 342.98724628 -1.08534157 349.79272136 20.421875 350.17578125 C21.09360748 350.18782593 21.76533997 350.19987061 22.45742798 350.21228027 C25.26933124 350.26086787 28.08077372 350.30830685 30.89306641 350.32592773 C32.96587061 350.34139642 35.03701145 350.38153614 37.109375 350.42578125 C38.33624023 350.44036377 39.56310547 350.45494629 40.82714844 350.4699707 C44.56310566 351.09406759 45.76089131 351.99550958 48 355 C48.62951298 358.69838876 48.34491136 360.40928225 46.45019531 363.65429688 C43.71138331 366.2763082 42.20381488 366.59146029 38.46844482 366.64343262 C37.75182678 366.62703735 37.03520874 366.61064209 36.296875 366.59375 C35.54142395 366.59379028 34.7859729 366.59383057 34.00762939 366.59387207 C32.403765 366.58851335 30.7999016 366.57091506 29.19628906 366.54199219 C26.79926425 366.50084565 24.405124 366.50086952 22.0078125 366.5078125 C-6.16019669 366.39317133 -30.2198325 357.3303716 -50.625 337.44140625 C-66.86532261 320.38411619 -77.08437042 297.33353959 -77.14044189 273.66017151 C-77.14341302 272.95494148 -77.14638414 272.24971145 -77.1494453 271.52311081 C-77.15806486 269.17758566 -77.15963481 266.83211195 -77.16113281 264.48657227 C-77.16576594 262.79723503 -77.17079126 261.10789884 -77.17617798 259.41856384 C-77.18926036 254.83953807 -77.19573934 250.26052694 -77.20018864 245.68148541 C-77.20312741 242.81405713 -77.20723381 239.94663277 -77.21169281 237.07920647 C-77.22535968 228.08878364 -77.23502908 219.09836988 -77.2388947 210.1079374 C-77.24336706 199.76584728 -77.26088008 189.42388989 -77.2898953 179.0818401 C-77.31159675 171.06537663 -77.32160355 163.04895026 -77.32293582 155.03245777 C-77.32397824 150.2555247 -77.32976438 145.47871652 -77.34775543 140.70181465 C-77.36438211 136.19965097 -77.36632179 131.69770407 -77.35761642 127.1955204 C-77.35685366 125.55580815 -77.36108645 123.91608353 -77.37107468 122.27640152 C-77.5375323 93.2129013 -68.38077558 69.32530546 -48.375 48 C-36.95122295 36.97705723 -18.67997964 24.32754881 -2.2265625 23.93359375 C-1.49179688 23.95550781 -0.75703125 23.97742188 0 24 C-0.68835938 23.22076172 -0.68835938 23.22076172 -1.390625 22.42578125 C-2.65925389 20.98391523 -3.92069011 19.53569665 -5.17578125 18.08203125 C-6.55037041 16.51317467 -7.98136179 14.99347509 -9.4375 13.5 C-11.7901228 9.73580352 -11.56733361 7.39683549 -11 3 C-8.05033417 -0.77557226 -4.51284705 -0.75214117 0 0 Z " fill="#5A56CD" transform="translate(95,62)"/>
<path d="M0 0 C2.4375 1.5625 2.4375 1.5625 4 4 C4.6875 7.25 4.6875 7.25 4 11 C1.94359792 13.94732287 -0.49366281 16.43462703 -3 19 C-4.34592097 20.65651812 -5.6859849 22.31806068 -7 24 C-5.96875 24.061875 -4.9375 24.12375 -3.875 24.1875 C17.10154449 26.86061717 37.55629973 41.58250033 50.3046875 57.9609375 C64.91822164 78.2821146 70.31717581 99.32279333 70.2746582 124.09692383 C70.27901451 125.78862226 70.28420069 127.48031873 70.29014587 129.17201233 C70.30344904 133.7341694 70.30412424 138.29624318 70.30158257 142.85841584 C70.30050684 146.68253093 70.3054116 150.50662957 70.310188 154.33074111 C70.32125339 163.36121316 70.32173749 172.3916436 70.31567383 181.42211914 C70.30963751 190.70272257 70.32194323 199.98317425 70.3432439 209.2637518 C70.36092342 217.26417175 70.36685124 225.26454367 70.36360615 233.2649824 C70.3618031 238.02894422 70.36433087 242.79279779 70.37832069 247.55674171 C70.39099817 252.04092512 70.38886232 256.52487392 70.37590981 261.00905418 C70.37356582 262.64273537 70.37619925 264.2764336 70.38453293 265.91009521 C70.52147506 294.87213944 60.72851266 319.85071567 40.53125 340.52734375 C34.33024223 346.41628781 27.42807059 350.80792056 20 355 C19.1440625 355.4846875 18.288125 355.969375 17.40625 356.46875 C2.36515773 364.47764329 -13.82425313 366.38518545 -30.58422852 366.42553711 C-32.95884378 366.4376085 -35.33099468 366.48711584 -37.70507812 366.53710938 C-39.2291542 366.5465583 -40.75324592 366.55380063 -42.27734375 366.55859375 C-42.97947495 366.57812607 -43.68160614 366.59765839 -44.40501404 366.61778259 C-48.25110175 366.58245173 -49.90578145 366.07291777 -52.98266602 363.69165039 C-55 361 -55 361 -55 357.375 C-53.67705234 352.91005166 -53.67705234 352.91005166 -51 351 C-48.08349609 350.61523438 -48.08349609 350.61523438 -44.5234375 350.59375 C-43.22067871 350.5740918 -41.91791992 350.55443359 -40.57568359 350.53417969 C-39.8891571 350.52914429 -39.20263062 350.52410889 -38.49530029 350.5189209 C-12.36305275 350.28572487 11.15313918 345.86270738 30.8515625 327.3359375 C49.08157304 307.51494422 54.15537943 284.78557064 54.14526367 258.42114258 C54.14826037 256.85634278 54.15166407 255.29154372 54.15544128 253.72674561 C54.16423459 249.4971306 54.16661745 245.26753587 54.16725707 241.03791261 C54.16797035 238.38858664 54.17010994 235.73926573 54.17275429 233.08994102 C54.18199303 223.82777965 54.18609111 214.56563262 54.18530273 205.3034668 C54.18470269 196.70174352 54.19524392 188.1000831 54.2110464 179.49837571 C54.22417082 172.08741807 54.22948457 164.67648085 54.22884732 157.26551169 C54.22859373 152.8508776 54.23136768 148.43629941 54.24202538 144.02167702 C54.251789 139.86424975 54.25172963 135.70693086 54.24450874 131.54949951 C54.24347301 130.03472928 54.24576465 128.519952 54.2518692 127.00519371 C54.34984735 100.98105504 47.88078253 78.81661436 29.8125 59.68359375 C14.88115994 45.65801512 -3.84388473 38.87643648 -24 37.625 C-27.30652617 37.33872068 -28.80293291 37.11915684 -31.6875 35.375 C-33.64187768 31.83850705 -33.7332614 29.99960763 -33 26 C-31.71142578 24.19799805 -31.71142578 24.19799805 -30.0078125 22.32421875 C-29.37415771 21.62699707 -28.74050293 20.92977539 -28.08764648 20.21142578 C-24.51784107 16.42996192 -20.8741032 12.7299188 -17.1875 9.0625 C-16.42501953 8.29615234 -15.66253906 7.52980469 -14.87695312 6.74023438 C-14.14798828 6.01255859 -13.41902344 5.28488281 -12.66796875 4.53515625 C-12.01078857 3.879104 -11.3536084 3.22305176 -10.67651367 2.54711914 C-7.31922808 -0.55104873 -4.46294766 -0.38473687 0 0 Z " fill="#A951C3" transform="translate(424,62)"/>
</svg>
