<?xml version="1.0" encoding="UTF-8"?>
<svg version="1.1" xmlns="http://www.w3.org/2000/svg" width="512" height="512">
<path d="M0 0 C3.96 0 7.92 0 12 0 C21.5225248 17.40400798 23.45367661 32.88319702 23.21585584 52.35621572 C23.18043923 56.18004107 23.20392706 60.0036055 23.21983337 63.82749939 C23.23942081 70.38178138 23.22357615 76.9351502 23.18191528 83.48931885 C23.12217024 92.90087405 23.11821548 102.31181758 23.12808907 111.72352791 C23.14255194 126.61028891 23.11653966 141.49664049 23.06298828 156.38330078 C22.99618172 175.09005902 22.996623 193.79626138 23.02411842 212.50309491 C23.03352507 219.04478614 23.04097686 225.58648003 23.04833984 232.12817383 C23.04914126 232.82191837 23.04994267 233.51566291 23.05076838 234.23043001 C23.07583637 256.48698022 23.03951149 278.7434827 23 301 C15.08 301 7.16 301 -1 301 C-1 292.75 -1 284.5 -1 276 C1.64 275.01 4.28 274.02 7 273 C10.4703066 270.66131512 12.40994989 268.84553969 14 265 C14.78168343 259.41654692 14.28213652 254.70439568 11 250 C6.98832282 246.79065826 4.00910847 245.66970282 -1 244 C-1 223.54 -1 203.08 -1 182 C-1.99 182 -2.98 182 -4 182 C-4 180.35 -4 178.7 -4 177 C-2.68 177 -1.36 177 0 177 C0 118.59 0 60.18 0 0 Z M4 52 C4 92.26 4 132.52 4 174 C6.64 174 9.28 174 12 174 C12.641917 145.51122956 11.54082603 117.18934532 10 88.75 C9.9282531 87.42536932 9.9282531 87.42536932 9.85505676 86.07397842 C9.25606254 75.04820717 8.63719507 64.02362835 8 53 C6.68 52.67 5.36 52.34 4 52 Z " fill="#231D1E" transform="translate(228,142)"/>
<path d="M0 0 C3.63 0 7.26 0 11 0 C11 58.41 11 116.82 11 177 C4.07 177 -2.86 177 -10 177 C-10.23269159 157.31835402 -10.41055311 137.63710371 -10.51812172 117.95436001 C-10.56942249 108.812762 -10.6392064 99.67204063 -10.75439453 90.53100586 C-10.85488609 82.55236736 -10.9187728 74.57436437 -10.94088495 66.59511048 C-10.95378693 62.37992627 -10.98352715 58.16655814 -11.05730057 53.95196342 C-11.39470004 33.92765827 -10.22468288 17.89279651 0 0 Z M4 53 C3.49539618 62.05947166 2.99111038 71.11896095 2.48720646 80.17847157 C2.25309544 84.38729995 2.01888376 88.59612268 1.78442383 92.80493164 C1.69286759 94.44873027 1.60131483 96.0925291 1.50976562 97.73632812 C1.46489486 98.54188739 1.42002409 99.34744665 1.3737936 100.1774168 C1.02538118 106.43674081 0.68010417 112.69623514 0.33563328 118.95577717 C0.11418449 122.96924286 -0.11401753 126.98222878 -0.34985352 130.99487305 C-0.91338987 140.73768806 -1.12680041 150.42867572 -1.0625 160.1875 C-1.05745625 161.54622224 -1.0528986 162.90494637 -1.04882812 164.26367188 C-1.03727832 167.5091662 -1.02100088 170.75455554 -1 174 C1.64 174 4.28 174 7 174 C7 134.07 7 94.14 7 53 C6.01 53 5.02 53 4 53 Z " fill="#231E20" transform="translate(272,141)"/>
<path d="M0 0 C8.25 0 16.5 0 25 0 C25 20.46 25 40.92 25 62 C22.03 62.99 19.06 63.98 16 65 C11.57734481 68.19936759 10.00748714 71.41257349 9.08984375 76.65625 C8.89064406 81.85276375 10.7201751 85.61047582 14.1875 89.375 C17.66481545 91.55626523 17.66481545 91.55626523 25 93 C25 101.25 25 109.5 25 118 C16.75 118 8.5 118 0 118 C0 79.06 0 40.12 0 0 Z " fill="#231E1F" transform="translate(260,324)"/>
<path d="M0 0 C15.90022195 -0.48182491 31.38149551 7.24570572 42.9375 17.8125 C56.52564558 30.81083271 65.84836053 47.98049971 67 67 C67.05285156 67.85722656 67.10570312 68.71445313 67.16015625 69.59765625 C67.8000304 90.26837338 60.715588 108.70105327 47 124 C41.04785626 130.14653724 34.61802267 135.07556408 27 139 C26.67 139 26.34 139 26 139 C25.39326411 134.20004492 25.15844793 129.78084181 26 125 C28.19730119 122.30429716 30.43795423 120.70767869 33.328125 118.7890625 C44.7942846 111.11142932 50.26963171 97.44365873 53.625 84.609375 C56.06446147 67.63478893 53.09809529 50.32355505 42.76318359 36.32470703 C31.36077434 22.15114369 17.41032423 15.35258106 0 11 C0 7.37 0 3.74 0 0 Z " fill="#221E1F" transform="translate(263,71)"/>
<path d="M0 0 C0 3.63 0 7.26 0 11 C-1.08796875 11.27972656 -2.1759375 11.55945313 -3.296875 11.84765625 C-21.69987306 16.78089514 -36.83248956 25.89248197 -46.58984375 42.74609375 C-54.51855465 57.65362109 -56.89616012 74.83397708 -52.03515625 91.203125 C-46.8637509 105.17567682 -38.45387933 116.69741378 -26 125 C-25.70703125 128.2578125 -25.70703125 128.2578125 -25.8125 132.125 C-25.85310547 134.04699219 -25.85310547 134.04699219 -25.89453125 136.0078125 C-25.92933594 136.99523437 -25.96414062 137.98265625 -26 139 C-43.64158946 130.76957342 -55.57668545 116.66717995 -62.78125 98.67578125 C-69.8615884 77.32129909 -67.70968573 56.41937146 -57.73046875 36.4609375 C-47.99083852 18.77803536 -31.30575064 6.77412519 -12.125 1.125 C-7.95553594 0.08110783 -4.2817713 -0.28545142 0 0 Z " fill="#221E1F" transform="translate(249,71)"/>
<path d="M0 0 C0.81146484 -0.01611328 1.62292969 -0.03222656 2.45898438 -0.04882812 C5.95879487 -0.05169918 8.41222384 -0.0172032 11.56640625 1.58203125 C14.11836013 4.53376903 14.18771561 7.74264272 14.17602539 11.53027344 C14.17594986 12.35082214 14.17587433 13.17137085 14.17579651 14.01678467 C14.17063522 14.89296448 14.16547394 15.76914429 14.16015625 16.671875 C14.1587413 17.57625305 14.15732635 18.4806311 14.15586853 19.41241455 C14.15027911 22.29581027 14.13772853 25.17912782 14.125 28.0625 C14.11998363 30.01953013 14.11542096 31.97656147 14.11132812 33.93359375 C14.1011648 38.72661671 14.08158728 43.51947104 14.0625 48.3125 C4.8225 48.3125 -4.4175 48.3125 -13.9375 48.3125 C-13.983461 42.56482193 -14.02327193 36.8177839 -14.04736328 31.07006836 C-14.05740853 29.11561927 -14.07104717 27.16118516 -14.08837891 25.20678711 C-14.11269203 22.39433083 -14.12399797 19.58207361 -14.1328125 16.76953125 C-14.14313507 15.89851273 -14.15345764 15.0274942 -14.16409302 14.13008118 C-14.16489012 9.80070407 -14.16405364 6.16572359 -11.9375 2.3125 C-7.87864966 -0.39340023 -4.7623546 -0.01882354 0 0 Z M-8.9375 4.3125 C-11.39855545 8.00408318 -11.19325793 10.77873554 -11.1328125 15.04296875 C-11.1299826 15.79338943 -11.12715271 16.54381012 -11.12423706 17.31697083 C-11.11305062 19.71147675 -11.08794928 22.10560731 -11.0625 24.5 C-11.05246819 26.12434355 -11.04334269 27.74869297 -11.03515625 29.37304688 C-11.01311637 33.353009 -10.9785974 37.33269088 -10.9375 41.3125 C-9.9475 41.3125 -8.9575 41.3125 -7.9375 41.3125 C-7.9375 29.1025 -7.9375 16.8925 -7.9375 4.3125 C-8.2675 4.3125 -8.5975 4.3125 -8.9375 4.3125 Z " fill="#231E1F" transform="translate(255.9375,19.6875)"/>
<path d="M0 0 C8.25 0 16.5 0 25 0 C25 7.875 25 7.875 22.375 12.27734375 C21.83359375 13.20224609 21.2921875 14.12714844 20.734375 15.08007812 C20.16203125 16.02302734 19.5896875 16.96597656 19 17.9375 C18.42765625 18.90751953 17.8553125 19.87753906 17.265625 20.87695312 C15.85710522 23.25969908 14.4351408 25.63322635 13 28 C11.35 28 9.7 28 8 28 C8 33.94 8 39.88 8 46 C6.68 46.66 5.36 47.32 4 48 C3.34 47.67 2.68 47.34 2 47 C2 40.73 2 34.46 2 28 C1.34 28 0.68 28 0 28 C0 18.76 0 9.52 0 0 Z " fill="#221E1F" transform="translate(260,444)"/>
<path d="M0 0 C7.92 0 15.84 0 24 0 C24 9.24 24 18.48 24 28 C19.71 28 15.42 28 11 28 C9.14513678 24.8443236 7.31645728 21.67768448 5.5 18.5 C4.97535156 17.613125 4.45070312 16.72625 3.91015625 15.8125 C3.16572266 14.49765625 3.16572266 14.49765625 2.40625 13.15625 C1.71499023 11.96225586 1.71499023 11.96225586 1.00976562 10.74414062 C0 8 0 8 0 0 Z " fill="#221E1F" transform="translate(227,444)"/>
<path d="M0 0 C3.78598814 2.43019509 5.08510161 5.06913104 6.25 9.4375 C6.43213098 13.60275634 5.68922454 16.74079901 3.4375 20.3125 C0.16928896 23.48733358 -2.56607256 24.73251882 -7.125 24.8125 C-11.66821322 24.71519889 -14.25211429 23.4235 -17.75 20.4375 C-20.13598167 16.85852749 -20.53579503 14.72159945 -20.75 10.4375 C-19.25624711 5.79900419 -17.55130239 2.52605819 -13.75 -0.5625 C-8.88735809 -2.18338064 -4.62949923 -2.29513309 0 0 Z M-9.75 8.4375 C-10.08 10.0875 -10.41 11.7375 -10.75 13.4375 C-8.77 14.4275 -8.77 14.4275 -6.75 15.4375 C-5.76 14.7775 -4.77 14.1175 -3.75 13.4375 C-4.08 11.7875 -4.41 10.1375 -4.75 8.4375 C-6.4 8.4375 -8.05 8.4375 -9.75 8.4375 Z " fill="#221E1F" transform="translate(234.75,390.5625)"/>
<path d="M0 0 C3.24523499 3.24523499 4.48200632 5.97436026 4.5625 10.5625 C4.43421588 15.15054387 3.37466759 17.75516568 0.1875 21.1875 C-4.30121312 23.86346359 -7.87722528 24.72719961 -12.953125 23.83203125 C-16.81676289 22.49274501 -18.86317216 19.54368263 -21.125 16.3125 C-22.54953453 11.90939326 -22.1967201 8.23904976 -20.625 3.9375 C-18.25176319 0.3367269 -15.86808492 -0.99026603 -11.9375 -2.5625 C-7.38157004 -3.09849176 -3.85631042 -2.48517783 0 0 Z M-11.8125 8.1875 C-11.8125 9.8375 -11.8125 11.4875 -11.8125 13.1875 C-9.3375 13.6825 -9.3375 13.6825 -6.8125 14.1875 C-6.1525 12.8675 -5.4925 11.5475 -4.8125 10.1875 C-5.4725 9.1975 -6.1325 8.2075 -6.8125 7.1875 C-9.7379644 6.9638932 -9.7379644 6.9638932 -11.8125 8.1875 Z " fill="#221E1F" transform="translate(292.8125,390.8125)"/>
<path d="M0 0 C3.3 0 6.6 0 10 0 C10 6.93 10 13.86 10 21 C6.7 21 3.4 21 0 21 C0 18.36 0 15.72 0 13 C-8.91 13 -17.82 13 -27 13 C-27 11.68 -27 10.36 -27 9 C-18.09 9 -9.18 9 0 9 C0 6.03 0 3.06 0 0 Z " fill="#221E1F" transform="translate(288,310)"/>
<path d="M0 0 C3.3 0 6.6 0 10 0 C10 5.94 10 11.88 10 18 C6.7 18 3.4 18 0 18 C0 12.06 0 6.12 0 0 Z " fill="#221F1F" transform="translate(251,69)"/>
<path d="M0 0 C1.98 0 3.96 0 6 0 C6.02690104 2.79173055 6.04679053 5.58320348 6.0625 8.375 C6.07087891 9.1690625 6.07925781 9.963125 6.08789062 10.78125 C6.11328125 16.7734375 6.11328125 16.7734375 5 19 C3.35 19 1.7 19 0 19 C0 12.73 0 6.46 0 0 Z " fill="#221E1F" transform="translate(244,473)"/>
<path d="M0 0 C3.3 0 6.6 0 10 0 C10 3.3 10 6.6 10 10 C6.7 10 3.4 10 0 10 C0 6.7 0 3.4 0 0 Z " fill="#1F1C1D" transform="translate(213,327)"/>
<path d="M0 0 C3.3 0 6.6 0 10 0 C10 1.65 10 3.3 10 5 C6.7 5 3.4 5 0 5 C0 3.35 0 1.7 0 0 Z " fill="#231F20" transform="translate(213,316)"/>
<path d="M0 0 C3.3 0 6.6 0 10 0 C10 1.32 10 2.64 10 4 C6.7 4 3.4 4 0 4 C0 2.68 0 1.36 0 0 Z " fill="#231F1F" transform="translate(288,332)"/>
<path d="M0 0 C3.3 0 6.6 0 10 0 C10 1.32 10 2.64 10 4 C6.7 4 3.4 4 0 4 C0 2.68 0 1.36 0 0 Z " fill="#231F20" transform="translate(213,322)"/>
<path d="M0 0 C3.3 0 6.6 0 10 0 C10 1.32 10 2.64 10 4 C6.7 4 3.4 4 0 4 C0 2.68 0 1.36 0 0 Z " fill="#221F20" transform="translate(213,311)"/>
<path d="M0 0 C3.3 0 6.6 0 10 0 C10 1.32 10 2.64 10 4 C6.7 4 3.4 4 0 4 C0 2.68 0 1.36 0 0 Z " fill="#221E1F" transform="translate(213,306)"/>
<path d="M0 0 C3.3 0 6.6 0 10 0 C10 0.99 10 1.98 10 3 C6.7 3 3.4 3 0 3 C0 2.01 0 1.02 0 0 Z " fill="#221E20" transform="translate(288,306)"/>
</svg>
